<svg width="48" height="42" viewBox="0 0 48 42" fill="none" xmlns="http://www.w3.org/2000/svg">
<g clip-path="url(#clip0_27_733)">
<mask id="mask0_27_733" style="mask-type:luminance" maskUnits="userSpaceOnUse" x="0" y="0" width="36" height="29">
<path fill-rule="evenodd" clip-rule="evenodd" d="M0.599609 0.237793H35.066V28.4465H0.599609V0.237793Z" fill="white"/>
</mask>
<g mask="url(#mask0_27_733)">
<path fill-rule="evenodd" clip-rule="evenodd" d="M5.75766 18.6887L4.27718 20.1701C3.86877 20.581 3.86645 21.2405 4.27254 21.6445C4.67862 22.0508 5.33765 22.0485 5.74605 21.6421L7.22653 20.1608C7.63494 19.7521 7.63726 19.0904 7.23117 18.684C6.82508 18.2777 6.16606 18.28 5.75766 18.6887ZM4.7853 12.7725C4.7853 12.199 4.31656 11.7346 3.73875 11.7346H1.64799C1.06786 11.7346 0.599121 12.199 0.599121 12.7725C0.599121 13.3483 1.06786 13.8127 1.64799 13.8127H3.73875C4.31656 13.8127 4.7853 13.3483 4.7853 12.7725ZM13.1392 5.47475C9.10852 5.47475 5.84358 8.74397 5.84358 12.7725C5.84358 15.1222 6.97134 17.1887 8.69315 18.5238C9.11084 18.1314 9.60046 17.8295 10.1226 17.5764C10.0785 17.3582 10.0715 17.1283 10.053 16.9008C8.78133 15.9534 7.92274 14.4837 7.92274 12.7725C7.92274 9.89098 10.2548 7.55284 13.1392 7.55284C15.4644 7.55284 17.4113 9.08761 18.0842 11.1912C18.5321 11.3909 18.9428 11.651 19.3187 11.9551C19.5577 11.5535 19.8292 11.1773 20.1402 10.8337C19.2862 7.75252 16.4923 5.47475 13.1392 5.47475ZM21.9986 3.90751C21.5925 3.50118 20.9312 3.5035 20.5228 3.91448L19.0446 5.39584C18.6362 5.80217 18.6339 6.46159 19.04 6.86792C19.4438 7.27425 20.1074 7.27193 20.5135 6.86328L21.994 5.38423C22.4024 4.97558 22.4047 4.31384 21.9986 3.90751ZM5.75766 6.85861C6.16606 7.26727 6.82508 7.26959 7.23117 6.86326C7.63726 6.45925 7.63494 5.79519 7.22653 5.38886L5.74605 3.90749C5.33765 3.49884 4.67862 3.49651 4.27254 3.90284C3.86645 4.30918 3.86877 4.96859 4.27718 5.37957L5.75766 6.85861ZM13.1389 4.42294C13.7121 4.42294 14.1762 3.95392 14.1762 3.37577V1.28375C14.1762 0.703273 13.7121 0.236572 13.1389 0.236572C12.5658 0.236572 12.097 0.703273 12.097 1.28375V3.37577C12.097 3.95392 12.5658 4.42294 13.1389 4.42294Z" fill="#F8E71C"/>
</g>
<mask id="mask1_27_733" style="mask-type:luminance" maskUnits="userSpaceOnUse" x="0" y="0" width="36" height="29">
<path fill-rule="evenodd" clip-rule="evenodd" d="M0.599609 0.237793H35.066V28.4465H0.599609" fill="white"/>
</mask>
<g mask="url(#mask1_27_733)">
<path fill-rule="evenodd" clip-rule="evenodd" d="M35.067 22.6999C35.067 25.8739 32.4959 28.4466 29.3215 28.4466C29.1428 28.4466 28.9757 28.4094 28.8017 28.3932V28.4466H14.1825C11.2982 28.4466 8.96143 26.1084 8.96143 23.2223C8.96143 21.0444 10.2934 19.1799 12.1869 18.3951C12.1266 18.0979 12.0941 17.7914 12.0941 17.4756C12.0941 14.8797 14.1965 12.7738 16.7931 12.7738C18.0137 12.7738 19.1159 13.2521 19.9513 14.016C20.8656 12.0517 22.838 10.6841 25.1469 10.6841C28.319 10.6841 30.8901 13.2591 30.8901 16.4308C30.8901 16.6839 30.8484 16.9277 30.8136 17.1738C33.2594 17.8332 35.067 20.046 35.067 22.6999Z" fill="#E4F2FC"/>
</g>
</g>
<defs>
<clipPath id="clip0_27_733">
<rect width="47.3134" height="41.0952" fill="white" transform="translate(0.599609 0.164551)"/>
</clipPath>
</defs>
</svg>
