<svg xmlns="http://www.w3.org/2000/svg" width="139.776" height="44.146" viewBox="0 0 139.776 44.146">
  <g id="fly-oya-logo" transform="translate(0 0.005)">
    <path id="Path_198" data-name="Path 198" d="M129.735,13.616a19.029,19.029,0,0,1-2.064,1.738,18.38,18.38,0,0,1,.858,5.047c.888-.253,1.769-.553,2.729-.887a22.038,22.038,0,0,0-1.523-5.9" fill="#d5a531"/>
    <path id="Path_199" data-name="Path 199" d="M90.342,18.354a19.145,19.145,0,0,1,26.481-14.8,15.91,15.91,0,0,1,4.149,2.423c.531-.478,1.1-.981,1.691-1.532A20.721,20.721,0,0,0,109.328,0a21.768,21.768,0,0,0-8.292,1.634A22.09,22.09,0,0,0,89.065,13.259a22.658,22.658,0,0,0-1.5,5.17c.817.016,1.863,0,2.773-.074" fill="#d5a531"/>
    <path id="Path_200" data-name="Path 200" d="M125.324,32.036a27.3,27.3,0,0,1-2.593,3.013A19.3,19.3,0,0,1,91.7,28.956a18.9,18.9,0,0,1-.974-2.84c-1.13-.6-2.248-1.234-3.348-1.886a22.059,22.059,0,0,0,37.755,13.218,30.232,30.232,0,0,0,4.176-6.318c-1.138.294-2.826.678-3.982.907" fill="#d5a531"/>
    <path id="Path_201" data-name="Path 201" d="M116.614,23.169a50.467,50.467,0,0,1-5.671-.318,50.464,50.464,0,0,0,21.336-15.22,51.79,51.79,0,0,0-9.061-.95,50.7,50.7,0,0,1-5.016,4.008,50.065,50.065,0,0,1-18.253,7.966c-.98.21-1.97.393-2.972.543a50.59,50.59,0,0,1-7.639.577q-2.525,0-4.987-.244a19.369,19.369,0,0,0,4.137,3.777l.132.087c.289.184.58.367.875.546q1.8,1.1,3.7,2.058,1.037.523,2.1.995a50.175,50.175,0,0,0,20.462,4.332A50.206,50.206,0,0,0,135.9,27.139a30.919,30.919,0,0,0,3.876-9.6,50.132,50.132,0,0,1-23.162,5.631" fill="#89817b"/>
    <path id="Path_202" data-name="Path 202" d="M21.922,13.556v4.893c0,2.663-1.211,4.01-3.755,4.01-2.072,0-3.44-1.062-3.508-3.576,0-.068,0-.136,0-.208a9.222,9.222,0,0,1,.318-2.383l1.809-.331a10.65,10.65,0,0,0-.3,1.474,8.688,8.688,0,0,0-.072,1.083c0,2.035.96,2.57,1.894,2.57,1.155,0,1.86-.611,1.86-2.531V14.525l.225-.178.021-.017.382-.3.514-.4.106-.085.06-.047.216-.17.1-.076a.414.414,0,0,1,.136.31" fill="#000f18"/>
    <path id="Path_203" data-name="Path 203" d="M18.168,14.8a.919.919,0,1,0-.919-.92.919.919,0,0,0,.919.92" fill="#000f18"/>
    <path id="Path_204" data-name="Path 204" d="M25.133,10.426V19.4H23.375V11.437l.433-.344.1-.077,0,0L23.922,11l.315-.251.777-.616a.408.408,0,0,1,.119.289" fill="#000f18"/>
    <path id="Path_205" data-name="Path 205" d="M32.855,20.487a.906.906,0,1,0,.878.906.883.883,0,0,0-.878-.906" fill="#000f18"/>
    <path id="Path_206" data-name="Path 206" d="M30.646,20.487a.906.906,0,1,0,.891.906.893.893,0,0,0-.891-.906" fill="#000f18"/>
    <path id="Path_207" data-name="Path 207" d="M53.071,10.159l-.289.229,0,0-.009,0-.237.191-1.117.883v6.541H48.633V10.426a.389.389,0,0,0-.106-.272l-.293.234,0,0-.008,0-.238.191-1.109.875v6.549H44.2c.021-.285.034-.578.043-.867.008-.323.013-.645.013-.96a3.875,3.875,0,0,0-.557-2.208,2.419,2.419,0,0,0-2.149-1.011,3.757,3.757,0,0,0-3.419,2.476h-.013a12.8,12.8,0,0,0,.144-1.971V10.426a.387.387,0,0,0-.1-.263l-.344.272-.289.229,0,0-.008,0-.238.191-.777.616v6.532H33.772V13.637l-.391.31,0,0-.276.217-.62.488-.4.318-.06.047v2.99H28.395V13.556a.406.406,0,0,0-.11-.28l-.459.361-.391.31,0,0-.276.217-.518.408v4.965c0,1.44-.531,1.864-1.423,1.864a3.646,3.646,0,0,1-1.066-.157l-.013,0v.013l-.149,1.385a4.719,4.719,0,0,0,1.117.136c2.718,0,3.292-1.627,3.292-3.33V19.4H53.173v-8.97a.4.4,0,0,0-.1-.267M42.389,18.012H38.248c.331-1.865,1.516-3.636,2.944-3.636a1.058,1.058,0,0,1,1.075.731,3.556,3.556,0,0,1,.187,1.278c0,.48-.026,1.092-.064,1.627" fill="#000f18"/>
    <path id="Path_208" data-name="Path 208" d="M64.979,20.487a.906.906,0,1,0,.878.906.883.883,0,0,0-.878-.906" fill="#000f18"/>
    <path id="Path_209" data-name="Path 209" d="M65.9,13.556V19.4H58.746V11.514l1.436-1.134.246-.2a.431.431,0,0,1,.076.242v7.586H64.14v-3.4l.234-.183,1.431-1.13a.4.4,0,0,1,.093.259" fill="#000f18"/>
    <path id="Path_210" data-name="Path 210" d="M62.769,20.487a.906.906,0,1,0,.891.906.893.893,0,0,0-.891-.906" fill="#000f18"/>
    <path id="Path_211" data-name="Path 211" d="M70.252,12.966A3.206,3.206,0,0,0,66.723,16.3c0,1.89.973,3.092,3.568,3.092h1.041v.2c0,1.249-.918,1.767-2.307,1.767-.216,0-.437-.008-.645-.026l-1.538,1.215v.025a13.964,13.964,0,0,0,2.026.174,6.665,6.665,0,0,0,1.6-.178,3.108,3.108,0,0,0,2.323-1.835,3.453,3.453,0,0,0,.242-1.317V13.429a8.593,8.593,0,0,0-2.782-.463m.225,5.046c-1.4,0-2-.654-2-1.865a1.6,1.6,0,0,1,1.584-1.8,3.232,3.232,0,0,1,1.266.238v3.424Z" fill="#000f18"/>
    <path id="Path_212" data-name="Path 212" d="M74.487,18.976V11.624l1.253-.989.505-.4v8.741a.419.419,0,0,1-.42.421h-.917a.422.422,0,0,1-.421-.421" fill="#000f18"/>
    <path id="Path_213" data-name="Path 213" d="M76.23,8.491c-.692,0-.932-.214-.932-.505,0-.267.227-.454.653-.454A3.571,3.571,0,0,1,76.6,7.6l.16-.918a4.032,4.032,0,0,0-.786-.066c-1.4,0-1.877.665-1.877,1.411a.632.632,0,0,0,.24.52c-.114-.01-.4,0-.6-.006l-.476.871h3.26l.47-.919Z" fill="#d5a531"/>
    <path id="Path_214" data-name="Path 214" d="M8.5,29.539H0l4.643,7.714h8.851Z" fill="#d5a531"/>
    <path id="Path_215" data-name="Path 215" d="M72.729,25.529h-2.2L65.854,37.257l2.375-.69.983-2.527h2.615l.858-1.722H69.874L71.085,29.1a13.938,13.938,0,0,0,.48-1.566H71.6a11.985,11.985,0,0,0,.527,1.566L75.3,37.248l1.949-.567Z" fill="#000f18"/>
    <path id="Path_216" data-name="Path 216" d="M65.855,37.258h0v0Z" fill="#000f18"/>
    <path id="Path_217" data-name="Path 217" d="M55.944,29.03a5.962,5.962,0,0,0-1.288-1.951,5.8,5.8,0,0,0-2.005-1.315,6.75,6.75,0,0,0-2.56-.487,6.673,6.673,0,0,0-2.533.487,6.1,6.1,0,0,0-2,1.315,6.013,6.013,0,0,0-1.3,1.951,6.126,6.126,0,0,0,0,4.727,5.927,5.927,0,0,0,3.305,3.264,6.645,6.645,0,0,0,2.533.488,6.722,6.722,0,0,0,2.56-.488,5.787,5.787,0,0,0,2.005-1.314,6.15,6.15,0,0,0,1.288-6.677m-1.978,4.13a4.627,4.627,0,0,1-.826,1.45,3.782,3.782,0,0,1-1.329.99,4,4,0,0,1-1.72.365,3.95,3.95,0,0,1-1.707-.365,3.717,3.717,0,0,1-1.314-.99,4.218,4.218,0,0,1-.826-1.45,5.147,5.147,0,0,1-.311-1.773,5.7,5.7,0,0,1,.189-1.437,4.521,4.521,0,0,1,.555-1.247,4.346,4.346,0,0,1,.867-.988,3.458,3.458,0,0,1,1.152-.65,4.362,4.362,0,0,1,3.114.122,3.9,3.9,0,0,1,1.329.974,4.786,4.786,0,0,1,.826,1.451,5.686,5.686,0,0,1,0,3.548" fill="#d5a531"/>
    <path id="Path_218" data-name="Path 218" d="M62.854,32.1l4.671-6.568h-2.32L62.838,28.88q-.464.653-.992,1.5c-.293-.478-.619-.974-.974-1.488l-2.36-3.367H56.137L60.809,32.1v5.155l2.044-.592Z" fill="#000f18"/>
    <path id="Path_219" data-name="Path 219" d="M32.425,35.41H27.353V25.529H25.276V37.257h5.39l1.759-.965Z" fill="#000f18"/>
    <path id="Path_220" data-name="Path 220" d="M34.879,37.592l2.086-.6V32.334l4.767-6.7H39.365l-2.416,3.419q-.473.667-1.011,1.533-.45-.73-1-1.517l-2.407-3.435H30.112l4.767,6.7Z" fill="#000f18"/>
    <path id="Path_221" data-name="Path 221" d="M23.091,27.519V25.633h-7.11v11.96l2.086-.6V32.526h5.024V30.7H18.067V27.519Z" fill="#000f18"/>
  </g>
</svg>
