<svg width="25" height="26" viewBox="0 0 25 26" fill="none" xmlns="http://www.w3.org/2000/svg">
<path d="M16.9375 1.75H8.075C4.3125 1.75 1.25 4.8 1.25 8.55V17.45C1.25 21.2 4.3125 24.25 8.075 24.25H16.925C20.7 24.25 23.75 21.2 23.75 17.45V8.55C23.7625 4.8 20.7 1.75 16.9375 1.75ZM21.875 18C21.875 20.4125 19.9125 22.375 17.5 22.375H7.5C5.0875 22.375 3.125 20.4125 3.125 18V8C3.125 5.5875 5.0875 3.625 7.5 3.625H17.5C19.9125 3.625 21.875 5.5875 21.875 8V18Z" fill="#444544"/>
<path d="M18.5876 8.43749C19.3401 8.43749 19.9501 7.82748 19.9501 7.07499C19.9501 6.32251 19.3401 5.71249 18.5876 5.71249C17.8351 5.71249 17.2251 6.32251 17.2251 7.07499C17.2251 7.82748 17.8351 8.43749 18.5876 8.43749Z" fill="#444544"/>
<path d="M12.5375 7.3125C9.35 7.3125 6.75 9.8875 6.75 13.0625C6.75 16.25 9.3375 18.825 12.5375 18.825C15.7375 18.825 18.325 16.2488 18.325 13.0625C18.3125 9.8875 15.725 7.3125 12.5375 7.3125ZM12.6 16.75C10.525 16.75 8.85 15.075 8.85 13.0125C8.85 10.95 10.525 9.275 12.6 9.275C14.675 9.275 16.35 10.95 16.35 13.0125C16.35 15.075 14.675 16.75 12.6 16.75Z" fill="#444544"/>
</svg>
