<svg width="25" height="26" viewBox="0 0 25 26" fill="none" xmlns="http://www.w3.org/2000/svg">
<path d="M7.2125 22.8625V9.4625H2.7625V22.8625H7.2125ZM4.9875 7.6375C6.5375 7.6375 7.5125 6.6125 7.5125 5.325C7.4875 4 6.55 3 5.025 3C3.5 3 2.5 4 2.5 5.3125C2.5 6.6 3.4625 7.625 4.9625 7.625H4.9875V7.6375Z" fill="#444544"/>
<path d="M9.6875 22.8625H14.1375V15.375C14.1375 14.975 14.1625 14.575 14.2875 14.2875C14.6125 13.4875 15.3375 12.6625 16.575 12.6625C18.1875 12.6625 18.825 13.8875 18.825 15.6875V22.8625H23.275V15.175C23.275 11.0625 21.075 9.14999 18.15 9.14999C15.75 9.14999 14.6875 10.4875 14.1 11.4125H14.125V9.46249H9.6875C9.7375 10.7125 9.6875 22.8625 9.6875 22.8625Z" fill="#444544"/>
</svg>
