<svg width="167" height="153" viewBox="0 0 167 153" fill="none" xmlns="http://www.w3.org/2000/svg">
<path d="M12.6104 11.5586L14.4795 11.5586L14.4795 0.83789L12.6104 0.83789L12.6104 11.5586ZM8.04492 7.19727L19.4316 7.19726L19.4316 5.20996L8.04492 5.20996L8.04492 7.19727Z" fill="#FF7152"/>
<path d="M47.6899 11.5586L49.559 11.5586L49.559 0.83789L47.6898 0.83789L47.6899 11.5586ZM43.1244 7.19727L54.5111 7.19726L54.5111 5.20996L43.1244 5.20996L43.1244 7.19727Z" fill="#E5E5E5"/>
<path d="M82.7696 11.5586L84.6388 11.5586L84.6388 0.83789L82.7696 0.83789L82.7696 11.5586ZM78.2042 7.19727L89.5909 7.19726L89.5909 5.20996L78.2042 5.20996L78.2042 7.19727Z" fill="#E5E5E5"/>
<path d="M12.6104 46.4419L14.4795 46.4419L14.4795 35.7212L12.6104 35.7212L12.6104 46.4419ZM8.04492 42.0806L19.4316 42.0806L19.4316 40.0933L8.04492 40.0933L8.04492 42.0806Z" fill="#E5E5E5"/>
<path d="M47.6899 46.4419L49.559 46.4419L49.559 35.7212L47.6899 35.7212L47.6899 46.4419ZM43.1245 42.0806L54.5112 42.0806L54.5112 40.0933L43.1245 40.0933L43.1245 42.0806Z" fill="#E5E5E5"/>
<path d="M82.7696 46.4419L84.6388 46.4419L84.6388 35.7212L82.7696 35.7212L82.7696 46.4419ZM78.2042 42.0806L89.5909 42.0806L89.5909 40.0933L78.2042 40.0933L78.2042 42.0806Z" fill="#E5E5E5"/>
<path d="M117.849 46.4419L119.718 46.4419L119.718 35.7212L117.849 35.7212L117.849 46.4419ZM113.284 42.0806L124.671 42.0806L124.671 40.0933L113.284 40.0933L113.284 42.0806Z" fill="#E5E5E5"/>
<path d="M12.6104 81.3252L14.4795 81.3252L14.4795 70.6045L12.6104 70.6045L12.6104 81.3252ZM8.04492 76.9639L19.4316 76.9639L19.4316 74.9766L8.04492 74.9766L8.04492 76.9639Z" fill="#E5E5E5"/>
<path d="M47.6899 81.3252L49.559 81.3252L49.559 70.6045L47.6898 70.6045L47.6899 81.3252ZM43.1244 76.9639L54.5111 76.9639L54.5111 74.9766L43.1244 74.9766L43.1244 76.9639Z" fill="#E5E5E5"/>
<path d="M82.7696 81.3252L84.6388 81.3252L84.6388 70.6045L82.7696 70.6045L82.7696 81.3252ZM78.2042 76.9639L89.5909 76.9639L89.5909 74.9766L78.2042 74.9766L78.2042 76.9639Z" fill="#6246E5"/>
<path d="M117.849 81.3252L119.718 81.3252L119.718 70.6045L117.849 70.6045L117.849 81.3252ZM113.284 76.9639L124.671 76.9639L124.671 74.9766L113.284 74.9766L113.284 76.9639Z" fill="#E5E5E5"/>
<path d="M152.929 81.3252L154.798 81.3252L154.798 70.6045L152.929 70.6045L152.929 81.3252ZM148.363 76.9639L159.75 76.9639L159.75 74.9766L148.363 74.9766L148.363 76.9639Z" fill="#E5E5E5"/>
<path d="M12.6104 116.209L14.4795 116.209L14.4795 105.488L12.6104 105.488L12.6104 116.209ZM8.04492 111.847L19.4316 111.847L19.4316 109.86L8.04492 109.86L8.04492 111.847Z" fill="#E5E5E5"/>
<path d="M47.6899 116.209L49.559 116.209L49.559 105.488L47.6899 105.488L47.6899 116.209ZM43.1245 111.847L54.5112 111.847L54.5112 109.86L43.1245 109.86L43.1245 111.847Z" fill="#E5E5E5"/>
<path d="M82.7696 116.209L84.6388 116.209L84.6388 105.488L82.7696 105.488L82.7696 116.209ZM78.2042 111.847L89.5909 111.847L89.5909 109.86L78.2042 109.86L78.2042 111.847Z" fill="#E5E5E5"/>
<path d="M117.849 116.209L119.718 116.209L119.718 105.488L117.849 105.488L117.849 116.209ZM113.284 111.847L124.671 111.847L124.671 109.86L113.284 109.86L113.284 111.847Z" fill="#DF6951"/>
<path d="M152.929 116.209L154.798 116.209L154.798 105.488L152.929 105.488L152.929 116.209ZM148.363 111.847L159.75 111.847L159.75 109.86L148.363 109.86L148.363 111.847Z" fill="#E5E5E5"/>
<path d="M12.6104 151.092L14.4795 151.092L14.4795 140.371L12.6104 140.371L12.6104 151.092ZM8.04492 146.731L19.4316 146.731L19.4316 144.743L8.04492 144.743L8.04492 146.731Z" fill="#E5E5E5"/>
<path d="M47.6899 151.092L49.559 151.092L49.559 140.371L47.6898 140.371L47.6899 151.092ZM43.1244 146.731L54.5111 146.731L54.5111 144.743L43.1244 144.743L43.1244 146.731Z" fill="#E5E5E5"/>
<path d="M82.7696 151.092L84.6388 151.092L84.6388 140.371L82.7696 140.371L82.7696 151.092ZM78.2042 146.731L89.5909 146.731L89.5909 144.743L78.2042 144.743L78.2042 146.731Z" fill="#DF6951"/>
<path d="M117.849 151.092L119.718 151.092L119.718 140.371L117.849 140.371L117.849 151.092ZM113.284 146.731L124.671 146.731L124.671 144.743L113.284 144.743L113.284 146.731Z" fill="#E5E5E5"/>
<path d="M152.929 151.092L154.798 151.092L154.798 140.371L152.929 140.371L152.929 151.092ZM148.363 146.731L159.75 146.731L159.75 144.743L148.363 144.743L148.363 146.731Z" fill="#E5E5E5"/>
</svg>
