<svg width="25" height="26" viewBox="0 0 25 26" fill="none" xmlns="http://www.w3.org/2000/svg">
<path d="M23.75 6.425C22.9237 6.78625 22.0325 7.03625 21.1012 7.15C22.055 6.575 22.7838 5.67375 23.1287 4.6C22.2375 5.125 21.2513 5.51125 20.1987 5.7125C19.3563 4.8125 18.1575 4.25 16.83 4.25C14.2787 4.25 12.2137 6.325 12.2137 8.875C12.2137 9.2375 12.255 9.58625 12.335 9.92375C8.49375 9.725 5.095 7.89875 2.8175 5.09875C2.42 5.77375 2.1925 6.575 2.1925 7.42375C2.1925 9.025 3.00625 10.4375 4.24625 11.2625C3.4875 11.2362 2.775 11.0363 2.15375 10.6863V10.7362C2.15375 12.9725 3.74625 14.8475 5.8575 15.275C5.47 15.3737 5.06125 15.4237 4.64125 15.4237C4.34375 15.4237 4.05625 15.3988 3.7725 15.35C4.3625 17.1862 6.065 18.5238 8.08625 18.5613C6.50625 19.7863 4.515 20.5237 2.3525 20.5237C1.97875 20.5237 1.6125 20.5112 1.25 20.4613C3.29375 21.7738 5.72 22.5362 8.3275 22.5362C16.8175 22.5362 21.4625 15.5 21.4625 9.41125C21.4625 9.21125 21.4575 9.01125 21.4462 8.81125C22.3487 8.16125 23.13 7.3475 23.75 6.425Z" fill="#444544"/>
</svg>
